<svg version="1.2" xmlns="http://www.w3.org/2000/svg" viewBox="0 0 1578 632" width="1578" height="632">
	<title>logo_xtb</title>
	<style>
		.s0 { fill: #ffffff } 
		.s1 { fill: #000000 } 
		.s2 { fill: #fe0103 } 
	</style>
	<path class="s0" d="m610.1 21.1v589h-589v-589z"/>
	<path class="s1" d=""/>
	<path fill-rule="evenodd" class="s2" d="m0 631.1v-631.1h631.1v631.1zm430.1-183.4l165.1 30.7c-49.2-65.8-108.9-124.7-175.6-172.9 56.2-43.9 106.2-95.7 148.3-152.8l-165 31.6c-3.5 2.7-6.1 4.4-8.8 7.1q-32.9 28.9-68.4 55.3c-22-12.3-43-22.9-65-33.4l-195.7 39.5c37.7 10.5 75.5 21.9 112.3 36.9 15.8 6.1 29.9 12.3 44.8 19.3-23.7 12.3-47.4 23.7-72 33.3-36.8 15-73.7 27.2-112.3 36.9l195.7 39.5c32.5-14.9 63.2-31.6 93.9-50 32.5 21 64.1 45.6 93.1 71.9 3.5 2.7 6.1 4.4 8.8 7.1z"/>
	<path fill-rule="evenodd" class="s1" d="m865.5 323.9l-108-142.2h79.9l71.1 93 68.5-93h78.1l-108.9 143.1 111.5 145.7h-79.9l-72.8-95.7-68.5 95.7h-78.1l108-145.7zm337.9 146.6c-55.3 0-93-32.5-93-96.6v-128.1h-41.3v-64.1h41.3v-52.7l68.4-21.1v73.8h62.4v64.1h-62.4v125.5c0 21.9 11.4 34.2 28.1 34.2h34.3v64.1h-37.8zm228.2 5.3c-40.3 0-70.2-17.6-91.3-44.8v38.6h-64.9v-403.8h68.5v151.9c21-24.6 51.7-41.3 90.4-41.3 79.8 0 143 67.6 143 151.9 0 84.3-62.3 147.5-144.8 147.5zm74.6-149.3c0-45.6-36.9-82.5-82.5-82.5-45.6 0-82.5 36.9-82.5 82.5 0 45.7 36.9 82.5 82.5 82.5 45.6 0 82.5-36.8 82.5-82.5z"/>
</svg>